<?xml version="1.0" encoding="UTF-8"?>
<svg id="Layer_1" data-name="Layer 1" xmlns="http://www.w3.org/2000/svg" viewBox="0 0 610.66 439.14">
  <defs>
    <style>
      .cls-1 {
        fill: #ef4923;
      }

      .cls-2 {
        fill: #fff;
      }
    </style>
  </defs>
  <path class="cls-1" d="M409.73,353.62c-.39,2.14-2.65,5.79-6.78,10.93-4.12,5.14-9.23,10.82-15.32,17.04-6.09,6.22-12.86,12.75-20.33,19.61-7.46,6.86-14.83,13.07-22.1,18.65-7.27,5.57-13.95,10.18-20.03,13.82-6.09,3.65-10.9,5.47-14.44,5.47V0h299.91v99.66h-200.34v27.65h151.43v99.01h-151.43v127.31h-.59Z"/>
  <path class="cls-2" d="M201.46,85.6c.4-2.14,2.66-5.77,6.79-10.9,4.13-5.13,9.25-10.79,15.34-16.98,6.1-6.19,12.88-12.71,20.36-19.54,7.47-6.83,14.85-13.03,22.12-18.58,7.28-5.55,13.96-10.14,20.05-13.77,6.09-3.63,10.91-5.44,14.44-5.44l-.66,438.37-299.91-.45.15-99.49,200.34.3.04-27.6-151.43-.23.15-98.84,151.43.23.19-127.08h.59Z"/>
</svg>