<?xml version="1.0" encoding="UTF-8"?>
<svg id="Layer_3" data-name="Layer 3" xmlns="http://www.w3.org/2000/svg" viewBox="0 0 104.57 115.12">
  <defs>
    <style>
      .cls-1 {
        fill: #231f20;
      }

      .cls-1, .cls-2 {
        stroke: #000;
        stroke-miterlimit: 10;
        stroke-width: 3px;
      }

      .cls-2 {
        fill: none;
      }
    </style>
  </defs>
  <path d="M72.5,48.25C47.44,27.14,63.86-.01,81.8,17.5c15.76-15.43,36.66,9.64,9.96,30.75-5.58,1.86-9.96-2.63-9.96-2.63,0,0-4.71,4.92-9.3,2.63Z"/>
  <g>
    <line class="cls-2" x1="7.6" y1="75.36" x2="97" y2="49.73"/>
    <path d="M12.93,35.09c-8-4.23-8.54-11-4.3-19.42,7.92,4.74,9.76,11.1,4.3,19.42Z"/>
    <line class="cls-1" x1="30.46" y1="101.25" x2="73.55" y2="101.25"/>
    <polygon class="cls-1" points="52.3 63.75 18.62 113.62 87.8 113.62 52.3 63.75"/>
    <path d="M13.58,44.98c-8.27,1.09-12.28-3.72-13.58-12.31,8.48-.66,13.26,3.14,13.58,12.31Z"/>
    <path d="M16.48,57.58c-8.23,1.35-12.4-3.32-13.98-11.86,8.45-.93,13.35,2.71,13.98,11.86Z"/>
    <path d="M20.59,69.48c-8.04,2.19-12.67-2.03-15.12-10.36,8.31-1.79,13.56,1.33,15.12,10.36Z"/>
    <path d="M21.48,69.37c-3.84-7.4-.69-12.82,6.94-16.97,3.51,7.74,1.57,13.53-6.94,16.97Z"/>
    <path d="M18.92,57.54c-4.28-7.15-1.46-12.75,5.9-17.35,3.97,7.52,2.38,13.41-5.9,17.35Z"/>
    <path d="M16.06,44.77c-4.64-6.93-2.11-12.66,5.01-17.63,4.35,7.31,3.06,13.28-5.01,17.63Z"/>
    <path d="M84.38,12.38c-8.27,1.09-12.28-3.72-13.58-12.31,8.48-.66,13.26,3.14,13.58,12.31Z"/>
  </g>
</svg>