<svg width="203" height="129" viewBox="0 0 203 129" fill="none" xmlns="http://www.w3.org/2000/svg">
<g clip-path="url(#clip0_324_858)">
<path d="M144.089 103.588C143.974 104.215 143.312 105.284 142.101 106.79C140.893 108.295 139.394 109.959 137.609 111.781C135.823 113.603 133.838 115.516 131.648 117.526C129.46 119.535 127.299 121.354 125.168 122.989C123.036 124.621 121.078 125.971 119.295 127.037C117.509 128.107 116.099 128.64 115.061 128.64V0H202.997V29.1939H144.256V37.2936H188.656V66.2972H144.256V103.591H144.083L144.089 103.588Z" fill="#EF4923"/>
<path d="M59.363 25.254C59.4803 24.6271 60.1429 23.5638 61.3539 22.061C62.5648 20.5582 64.0661 18.9002 65.8517 17.087C67.6403 15.2737 69.6282 13.3638 71.8214 11.363C74.0117 9.36225 76.1756 7.54605 78.3072 5.92026C80.4418 4.29447 82.4004 2.94989 84.1861 1.88654C85.9717 0.823182 87.385 0.292969 88.42 0.292969L88.2265 128.707L0.290283 128.575L0.334264 99.4311L59.0757 99.519L59.0874 91.434L14.6868 91.3666L14.7308 62.4129L59.1314 62.4802L59.1871 25.254H59.3601H59.363Z" fill="white"/>
<path d="M90.3698 112.022V106.339H108.871C108.983 106.362 109.173 106.491 109.443 106.728C109.713 106.966 110.009 107.259 110.334 107.607C110.66 107.956 111.003 108.345 111.361 108.773C111.718 109.201 112.044 109.626 112.337 110.042C112.627 110.458 112.871 110.841 113.061 111.193C113.252 111.541 113.349 111.82 113.349 112.022H90.3727H90.3698Z" fill="white"/>
<path d="M95.7032 99.5663V104.819H90.358V89.6709H95.7032V94.9232H109.329C109.513 94.9408 109.851 95.1488 110.346 95.5443C110.842 95.9397 111.352 96.3908 111.88 96.8976C112.407 97.4044 112.879 97.917 113.293 98.4326C113.706 98.9482 113.914 99.3261 113.914 99.5663H95.7032Z" fill="white"/>
<path d="M113.228 68.5471C113.228 68.7727 113.082 68.9983 112.791 69.2238C112.501 69.4494 112.141 69.6544 111.709 69.839C111.281 70.0235 110.83 70.1759 110.358 70.2989C109.886 70.4219 109.458 70.4834 109.071 70.4834H94.5245C94.1639 70.4834 93.7417 70.4219 93.2579 70.2989C92.7741 70.1759 92.3167 70.0235 91.8857 69.839C91.4547 69.6544 91.0969 69.4494 90.8037 69.2238C90.5135 68.9983 90.3669 68.7727 90.3669 68.5471V55.614C90.3669 55.409 90.5135 55.1893 90.8037 54.9549C91.094 54.7206 91.4547 54.5038 91.8857 54.3105C92.3138 54.1171 92.7712 53.956 93.2579 53.833C93.7417 53.71 94.1639 53.6484 94.5245 53.6484H109.071C109.458 53.6484 109.889 53.71 110.358 53.833C110.83 53.956 111.278 54.1142 111.709 54.3105C112.141 54.5038 112.498 54.7206 112.791 54.9549C113.082 55.1893 113.228 55.4119 113.228 55.614V68.5471ZM97.5622 58.807C97.3951 58.807 97.2309 58.8422 97.0637 58.9154C96.8966 58.9857 96.8145 59.0736 96.8145 59.1761V64.9821C96.8145 65.0846 96.9054 65.1667 97.0843 65.2282C97.2631 65.2897 97.4244 65.319 97.5622 65.319H106.039C106.206 65.319 106.37 65.2897 106.537 65.2282C106.704 65.1667 106.787 65.0846 106.787 64.9821V59.1761C106.787 59.0736 106.704 58.9857 106.537 58.9154C106.37 58.8451 106.206 58.807 106.039 58.807H97.5622Z" fill="white"/>
<path d="M94.0613 48.2996L94.0759 48.326L97.4419 51.6771H97.0197L93.6537 48.326L93.639 48.3113L92.5747 47.2538L92.5454 47.2128L90.3903 45.0714L90.3756 45.0568V44.7375C90.3756 44.6906 90.3815 44.6584 90.3903 44.6408V44.6555L92.8239 47.0751L92.9998 47.2567L93.9029 48.1473V48.2996H94.0642H94.0613ZM92.1319 48.3084V48.323L95.498 51.6742H95.0758L91.7097 48.323L91.6951 48.3084L91.2582 47.8778L90.6307 47.2509L90.3844 47.0019L90.3698 46.9872V46.5566L90.3844 46.5859L91.0559 47.2538L91.5514 47.7401L92.1349 48.3113L92.1319 48.3084ZM90.3639 48.4724L90.3786 48.5017L93.554 51.6713H93.1318L90.3786 48.9177L90.3639 48.903V48.4724ZM90.358 50.3999L90.3727 50.4146L91.6247 51.6654H90.3551L90.358 50.3999ZM96.0023 48.3054L96.017 48.3318L99.383 51.683H98.9461L95.5947 48.3318L95.5801 48.3054H96.0023ZM97.9463 48.3113L97.9609 48.3377L101.312 51.6889H100.89L97.524 48.3377L97.5094 48.3113H97.9463ZM99.8873 48.3289L102.101 50.5405L103.253 51.6947H102.831L102.104 50.9565L99.468 48.3435L99.4534 48.3172H99.8756L99.8902 48.3318L99.8873 48.3289ZM101.831 48.3347L104.001 50.5025L105.194 51.6976H104.758L103.564 50.4995L101.394 48.3318V48.3172H101.497V47.9979L101.834 48.3318L101.831 48.3347ZM103.772 48.3523L105.898 50.4673L107.135 51.7035H106.699L105.505 50.4937H105.491L103.35 48.3523L103.262 48.2556L101.5 46.5039V46.0879L101.749 46.3369L103.265 47.8397L103.28 47.8543L103.775 48.3406V48.3552L103.772 48.3523ZM107.053 50.1099L105.291 48.3582L105.276 48.3318H105.699L105.713 48.3611L107.332 49.9605L109.079 51.7123H108.643L107.053 50.1129V50.1099ZM108.168 49.278L107.22 48.3611L107.206 48.3347L112.624 48.3494L112.615 51.7211L110.586 51.7152L108.168 49.2809V49.278ZM103.019 45.6749L103.28 45.9239L104.678 47.3153L105.027 47.6639V48.0945L104.356 47.4266L103.277 46.3545L102.737 45.8126L101.834 44.9074L101.485 44.5588C101.485 44.4006 101.471 44.2483 101.441 44.1018L102.154 44.8107L103.013 45.672L103.019 45.6749ZM93.8296 46.5654L92.5923 45.3409L90.5369 43.2845L90.6248 42.9506L93.2461 45.5636L93.9029 46.2168V46.6474L93.8296 46.5654ZM97.7234 37.7949C99.2511 37.7979 100.632 38.208 101.861 39.0194C103.089 39.8308 103.978 40.8912 104.517 42.1948L112.648 38.5536L112.639 41.9107L105.036 45.3175V46.1787L104.013 45.1652L103.286 44.427L102.192 43.3431L98.8112 39.9773L96.7001 37.8769C96.7881 37.8594 96.92 37.8418 97.096 37.8213C97.3686 37.8037 97.5768 37.7949 97.7234 37.7949ZM93.9381 44.3332C93.9176 44.5002 93.9088 44.635 93.9088 44.7346L91.0383 41.855C91.0969 41.7261 91.1468 41.6324 91.1849 41.5767L93.9381 44.3157V44.3303V44.3332ZM93.3605 42.2388H93.3458L92.2668 41.1549L91.786 40.6833C91.8358 40.6188 91.8974 40.5397 91.9765 40.4489L92.692 41.1578L93.988 42.4643H94.0026L94.4542 42.9096C94.416 42.9652 94.3662 43.056 94.3076 43.1879L93.3605 42.2417V42.2388ZM95.1549 42.1186L94.1932 41.1578L92.9852 39.9626L92.7096 39.6697C92.8063 39.5789 92.8855 39.5145 92.9441 39.4764L93.425 39.9626L94.633 41.1578L95.3895 41.9077C95.3103 41.9546 95.2341 42.022 95.1549 42.1157V42.1186ZM96.1372 41.1637L94.9292 39.9685L93.9381 38.9813L93.8208 38.87C93.8502 38.8436 93.9 38.8114 93.9674 38.7733C94.0349 38.7382 94.0788 38.7147 94.0994 38.703L94.8412 39.4412L95.366 39.9685L96.5741 41.1637L96.6913 41.2896C96.5535 41.316 96.448 41.3482 96.3688 41.3863L96.1342 41.1637H96.1372ZM97.9639 41.0553L96.8702 39.9714L95.1373 38.246C95.2253 38.1992 95.3338 38.1582 95.4599 38.123L97.31 39.9714L98.518 41.1666L98.606 41.2486C98.5004 41.2193 98.3245 41.1959 98.0811 41.1783L97.9639 41.0524V41.0553Z" fill="#231F20" stroke="#EF4923" stroke-miterlimit="10"/>
<path d="M112.443 19.5476V32.6623C112.443 32.8908 112.299 33.1193 112.012 33.3478C111.724 33.5763 111.369 33.7843 110.944 33.9718C110.519 34.1592 110.076 34.3145 109.61 34.4405C109.144 34.5664 108.722 34.6279 108.338 34.6279H93.9763C93.6215 34.6279 93.2022 34.5664 92.7243 34.4405C92.2463 34.3145 91.7948 34.1592 91.3696 33.9718C90.9445 33.7843 90.5897 33.5763 90.3024 33.3478C90.015 33.1193 89.8713 32.8908 89.8713 32.6623V19.5476C89.8713 19.3396 90.015 19.117 90.3024 18.8768C90.5897 18.6366 90.9445 18.4198 91.3696 18.2236C91.7948 18.0273 92.2463 17.8662 92.7243 17.7402C93.2022 17.6143 93.6215 17.5527 93.9763 17.5527H98.5298V22.7875H96.9699C96.8057 22.7875 96.6415 22.8226 96.4773 22.8959C96.3131 22.9691 96.231 23.057 96.231 23.1595V29.0475C96.231 29.1501 96.319 29.235 96.4978 29.2965C96.6767 29.358 96.8321 29.3903 96.9699 29.3903H105.341C105.505 29.3903 105.669 29.358 105.834 29.2965C105.998 29.235 106.08 29.1501 106.08 29.0475V23.1595C106.08 23.057 105.998 22.9662 105.834 22.8959C105.669 22.8256 105.505 22.7875 105.341 22.7875H103.781V17.5527H108.335C108.719 17.5527 109.141 17.6143 109.607 17.7402C110.073 17.8662 110.516 18.0244 110.941 18.2236C111.366 18.4198 111.721 18.6395 112.009 18.8768C112.296 19.117 112.44 19.3396 112.44 19.5476H112.443Z" fill="white"/>
<path d="M95.6593 13.0386L96.319 13.7211L97.5036 14.9573H97.0667L96.0404 13.8676L95.2341 13.0386L94.9996 12.8072L93.9763 11.7467L93.9176 11.6882L93.771 11.527L93.6684 11.4245L93.4778 11.2224L93.038 10.7713L91.8241 9.52044L90.6835 8.32819L90.4636 8.09677L90.3757 8.00889V7.55777L90.4343 7.631L90.7568 7.96495L92.2639 9.52044L93.4632 10.7713L93.7564 11.0759L93.9176 11.237V11.4274H94.0935L94.2988 11.6296L95.4247 12.8072L95.6593 13.0386ZM94.5685 13.9291L95.023 14.3949L95.5655 14.9603H95.1286V14.9485L95.1139 14.9192L94.7327 14.5414L93.9264 13.7123L93.296 13.0445L93.0615 12.813L92.1818 11.8961L91.83 11.5329L91.7274 11.4304L91.1849 10.8797V10.865L91.097 10.7771L90.5252 10.1971L90.4226 10.0799L90.3786 10.036V9.58489L90.449 9.65812L90.5223 9.746L90.9328 10.1532V10.1678L91.5192 10.7771L92.1496 11.4304L92.2522 11.5329L92.4574 11.7497L93.4807 12.8101L93.7153 13.0415L93.9206 13.2583L94.5656 13.9115V13.9262L94.5685 13.9291ZM91.5426 12.8189L91.7772 13.0503L93.6068 14.969H93.1993L93.126 14.8987L93.082 14.8548L91.4429 13.1558L91.4283 13.1411L91.355 13.0532L91.1204 12.8218L90.8858 12.5758L90.534 12.2125L90.446 12.1246L90.3874 12.0514V11.6149L90.4021 11.6296L90.534 11.7614L90.8858 12.1246V12.1393L91.1791 12.4293L91.5456 12.8218L91.5426 12.8189ZM90.3933 13.6391L90.877 14.1342L91.6834 14.9778H90.3991L90.3933 13.642V13.6391ZM97.9346 13.3813L97.9639 13.4106L99.4417 14.9515H99.0048L97.3218 13.2085L97.1605 13.0327L96.9259 12.8013L96.7793 12.6402L96.75 12.6256L96.6474 12.5084L95.7971 11.6208L95.7091 11.5183L95.6065 11.4157H96.0287L96.234 11.6179L97.0843 12.5055L97.3628 12.7955L97.5974 13.0269L97.612 13.0415L97.9346 13.3755V13.3813ZM100.697 14.2308L100.975 14.5208L101.371 14.9427H100.949L100.729 14.7259L100.186 14.1605L99.7613 13.7094L99.7319 13.6948L99.1015 13.0269L98.867 12.7955L98.6031 12.5201L98.2512 12.1422L97.7381 11.6179L97.5329 11.4157H97.9698L98.1603 11.6179L98.5122 11.9664L98.8934 12.3736L99.2892 12.7955L99.5238 13.0269L99.729 13.2436L99.7583 13.2729L100.682 14.2308H100.697ZM103.28 14.8929L103.309 14.9368H102.887L102.227 14.2396L101.743 13.7446L101.04 13.0181L100.805 12.7867L99.9108 11.8434L99.7495 11.6823L99.6762 11.6091L99.5736 11.5065L99.4856 11.404H99.7202V11.2136L99.7495 11.2283L99.9108 11.404L100.013 11.5065L100.101 11.6091L100.204 11.6969L101.23 12.7867L101.465 13.0181L101.934 13.5132L102.594 14.1957L103.283 14.8929H103.28ZM103.406 13.0122L104.154 13.7973L105.25 14.931H104.813L103.831 13.9145L103.289 13.3491L103.274 13.3345L102.966 13.0152L102.731 12.7837L102.541 12.567L101.617 11.6091L101.412 11.4069L101.192 11.1902L100.782 10.7537L99.7407 9.67862L99.7114 9.66398V9.19821L99.7378 9.2275L100.002 9.50286L101.216 10.7537L101.479 11.0291L101.846 11.4069L102.051 11.6091L102.682 12.2623L103.165 12.7867L103.283 12.9038L103.4 13.021L103.406 13.0122ZM105.347 13.0064L105.479 13.1528L107.191 14.9251H106.754L105.218 13.3286H105.203L104.91 13.0093L104.675 12.7779L103.55 11.6003L103.447 11.4978L103.359 11.3952H103.781L103.986 11.5974L105.112 12.775L105.347 13.0064ZM109.059 14.846L109.132 14.9192H108.695L108.226 14.4271L106.851 13.0034L106.616 12.772L106.382 12.526L105.488 11.5944L105.4 11.4919L105.297 11.3894H105.719L105.925 11.5915L106.614 12.3033L107.053 12.7691L107.288 13.0005L108.373 14.1342L109.062 14.846H109.059ZM107.238 11.3806L109.091 11.3747L109.056 0.325194L112.586 0.313477L112.633 14.9046L110.633 14.9105L109.827 14.0668L109.123 13.3403L109.094 13.311L108.801 13.021L108.786 12.9917L108.552 12.7603L107.437 11.5827L107.232 11.3806H107.238ZM99.7114 7.16524L99.7554 7.20918L100.225 7.70424L101.952 9.49115L102.787 10.3494L103.168 10.742L103.271 10.8445V11.3103L103.083 11.1081L102.731 10.7449L102.497 10.4988L101.518 9.497L99.9372 7.85364L99.7466 7.65151L99.7173 7.62222V7.1711L99.7114 7.16524ZM93.9118 9.67569L93.7652 9.51458L91.569 7.23261L91.1585 6.79614L90.6894 6.33037V6.31572L90.3962 6.02572L90.3669 5.99643V5.5453L90.4226 5.60389L90.8037 5.99643L91.2729 6.49149L91.9912 7.23261L93.9088 9.22457V9.67569H93.9118ZM99.7026 5.31389H99.8639L99.9079 5.35783L101.518 7.02756L101.679 7.20332L103.259 8.84669V9.28316L101.254 7.20625L101.224 7.17696L100.025 5.92612L99.7319 5.62147L99.7026 5.60682V5.31389ZM93.9059 7.65151L93.4954 7.22968L91.7831 5.45742L91.6218 5.29631L91.2553 4.90378L90.6396 4.25053L90.361 3.97517V3.52405L90.7099 3.90194L91.4136 4.62842L91.9561 5.17914L92.0587 5.29631L93.903 7.21504V7.65151H93.9059ZM102.523 6.50027L101.427 5.35197L101.383 5.30803L103.25 5.30217L103.256 7.25605L103.198 7.19746L102.523 6.50027ZM92.5659 4.24467L92.0235 3.69395L91.0999 2.73605L90.4255 2.03887L90.3522 1.96563V1.49987L90.5985 1.76058L90.8624 2.03594L91.2142 2.41382L92.2229 3.44496L92.7506 3.99861L93.8912 5.17621V5.62733L93.557 5.29338L92.5601 4.2476L92.5659 4.24467ZM90.877 0.474591L90.7744 0.38671H91.2113L91.3139 0.471662L91.8857 1.08097L92.2815 1.4735L92.5454 1.74886L92.8093 2.02422L93.2198 2.44605L93.7036 2.94111L93.8942 3.14323V3.609L93.4866 3.17253L92.9882 2.66282L92.3724 2.02422L92.1085 1.74886L91.83 1.4735L91.7274 1.35633L90.877 0.468732V0.474591ZM93.7681 1.47057L92.8152 0.468732L92.7125 0.380852H93.8795L93.8824 1.58775L93.7652 1.47057H93.7681Z" fill="#231F20" stroke="#EF4923" stroke-miterlimit="10"/>
<path d="M95.6446 126.853L96.3043 127.524L97.4889 128.737H97.0491L96.0258 127.665L95.2224 126.85L94.9878 126.622L93.9645 125.579L93.9059 125.52L93.7593 125.362L93.6567 125.262L93.4661 125.063L93.0262 124.621L91.8124 123.394L90.6718 122.225L90.4519 121.996L90.3639 121.911V121.472L90.4255 121.542L90.748 121.87L92.2551 123.396L93.4543 124.624L93.7475 124.923L93.9088 125.081V125.265H94.0847L94.29 125.465L95.4159 126.622L95.6505 126.85L95.6446 126.853ZM94.5421 127.714L94.9966 128.171L95.539 128.728H95.0992V128.713L95.0846 128.684L94.7034 128.312L93.9 127.498L93.2725 126.841L93.038 126.613L92.1613 125.714L91.8094 125.356L91.7068 125.257L91.1644 124.715V124.7L91.0764 124.615L90.5047 124.044L90.402 123.93L90.3581 123.886V123.446L90.4343 123.517L90.5076 123.602L90.9181 124V124.015L91.5045 124.615L92.132 125.257L92.2346 125.356L92.4398 125.57L93.4631 126.613L93.6977 126.841L93.9029 127.055L94.548 127.697V127.711L94.5421 127.714ZM91.5045 126.607L91.7391 126.836L93.5687 128.719H93.1582L91.0823 126.604L90.8477 126.361L90.4959 126.004L90.4079 125.919L90.3493 125.848V125.421L90.3669 125.435L90.4988 125.564L91.1439 126.22L91.5104 126.607H91.5045ZM90.3405 127.386L90.8243 127.887L91.6423 128.716L90.3346 128.71L90.3405 127.389V127.386ZM97.9346 127.202L97.9639 127.231L99.4417 128.745H99.0018L97.3188 127.032L97.1576 126.862L96.923 126.633L96.7764 126.475L96.7471 126.461L95.7971 125.476L95.7091 125.377L95.6065 125.277H96.0316L96.2369 125.479L97.3628 126.636L97.5974 126.865L97.612 126.879L97.9346 127.208V127.202ZM100.694 128.051H100.708L101.38 128.751H100.955L100.195 127.978L99.77 127.536L99.7407 127.521L99.1133 126.865L98.8787 126.636L98.6148 126.364L97.7528 125.479L97.5475 125.28H97.9873L98.1779 125.482L98.908 126.223L99.3038 126.636L99.5384 126.865L99.7437 127.079L99.773 127.108L100.694 128.051ZM103.303 128.716L103.333 128.76H102.907L102.248 128.075L101.063 126.877L100.829 126.648L99.9372 125.719L99.7759 125.561L99.7026 125.491L99.6 125.391L99.512 125.292H99.7466V125.107L99.7759 125.122L99.9372 125.292L100.04 125.391L100.128 125.491L100.23 125.576L101.254 126.645L101.488 126.874L102.614 128.031L103.3 128.716H103.303ZM101.265 124.656L101.529 124.929L101.896 125.301L102.101 125.5L103.212 126.657L103.33 126.771L103.447 126.885L104.192 127.656L105.288 128.769H104.848L103.869 127.767L103.327 127.21L103.312 127.196L103.004 126.882L102.77 126.654L101.658 125.497L101.453 125.298L101.233 125.084L100.823 124.656L99.7847 123.599L99.7554 123.584V123.13L99.7876 123.159L100.052 123.432L101.265 124.659V124.656ZM103.596 125.506L103.494 125.406L103.406 125.306H103.831L104.036 125.509L105.162 126.666L105.397 126.894L105.529 127.038L107.241 128.778H106.801L105.265 127.205H105.25L104.957 126.891L104.722 126.663L103.596 125.506ZM105.549 125.511L105.447 125.412L105.359 125.312H105.784L105.989 125.514L106.675 126.214L107.115 126.671L107.349 126.9L108.431 128.013L109.118 128.713L109.191 128.784H108.751L108.282 128.297L106.907 126.897L106.672 126.669L106.438 126.425L105.546 125.511H105.549ZM107.517 125.52L107.311 125.321L112.73 125.342L112.715 128.795L110.704 128.786L109.9 127.957L109.2 127.243L108.877 126.929L108.862 126.9L108.628 126.671L107.517 125.514V125.52ZM99.8111 121.197L100.28 121.683L102.007 123.437L102.84 124.281L103.221 124.668L103.324 124.767V125.221L102.781 124.665L102.547 124.422L101.567 123.437L99.987 121.823L99.7964 121.624L99.7671 121.595V121.153L99.814 121.197H99.8111ZM93.9117 123.56L93.7651 123.402L91.5719 121.161L91.1614 120.734L90.6923 120.277V120.262L90.3991 119.975L90.3698 119.946V119.503L90.4314 119.562L90.8125 119.949L91.2817 120.435L91.9971 121.161L93.9117 123.118V123.558V123.56ZM99.8023 119.647L99.773 119.632V119.348H99.9342L99.9782 119.392L101.588 121.032L101.749 121.202L103.33 122.816V123.244L101.324 121.202L101.295 121.173L99.8023 119.647ZM93.9176 121.586L93.5071 121.173L91.7948 119.433L91.6335 119.275L91.267 118.888L90.6513 118.247L90.3727 117.974V117.535L90.7246 117.907L91.4253 118.622L91.9678 119.164L92.0704 119.278L93.9147 121.161V121.589L93.9176 121.586ZM102.602 120.526L101.506 119.398L101.462 119.354L103.341 119.363L103.333 121.267L103.274 121.208L102.6 120.523L102.602 120.526ZM91.2523 116.457L92.261 117.47L92.7887 118.012L93.9293 119.169V119.612L93.5921 119.284L92.5982 118.255L92.0557 117.714L91.1351 116.77L90.4607 116.085L90.3874 116.014V115.56L90.6366 115.818L90.9005 116.091L91.2523 116.463V116.457ZM90.921 114.564L90.8184 114.479H91.2582L91.3608 114.567L91.9326 115.168L92.5923 115.824L92.8562 116.097L93.2667 116.51L93.7505 116.996L93.9411 117.195V117.649L93.5306 117.221L93.0321 116.72L92.4164 116.094L92.1525 115.821L91.7713 115.434L90.9239 114.564H90.921ZM93.9411 115.669L92.8738 114.57L92.7712 114.485L93.9469 114.491L93.9411 115.672V115.669Z" fill="#231F20" stroke="#EF4923" stroke-miterlimit="10"/>
<path d="M95.8938 84.6149L96.5623 85.2505L97.7645 86.3989H97.3188L96.2808 85.3824L95.4657 84.6119L95.2282 84.3952L94.1903 83.408L94.1316 83.3523L93.9821 83.2029L93.8795 83.1092L93.6859 82.9188L93.2403 82.4999L92.0088 81.3369L90.8506 80.2267L90.6278 80.0099L90.5398 79.9279V79.509L90.6014 79.5764L90.9268 79.8869L92.4545 81.334L93.6713 82.497L93.9674 82.7811L94.1316 82.9305V83.1063H94.3105L94.5187 83.2967L95.6592 84.3922L95.8967 84.609L95.8938 84.6149ZM94.7738 85.4322L95.2341 85.8657L95.7824 86.393H95.3367V86.3783L95.3221 86.352L94.935 86.0005L94.1199 85.23L93.4836 84.609L93.2461 84.3922L92.3548 83.5398L92 83.2029L91.8974 83.1092L91.3491 82.5965V82.5819L91.2611 82.4999L90.6835 81.958L90.5809 81.8496L90.5369 81.8086V81.3897L90.6131 81.457L90.6864 81.5391L91.1028 81.9169V81.9316L91.6951 82.4999L92.3313 83.1092L92.4339 83.2029L92.6421 83.4051L93.6801 84.3922L93.9176 84.609L94.1258 84.8111L94.7796 85.4205V85.4351L94.7738 85.4322ZM91.6951 84.3805L91.9326 84.5973L93.7856 86.3813H93.3693L91.264 84.3776L91.0265 84.1491L90.6718 83.8122L90.5838 83.7302L90.5252 83.6628V83.2586L90.5427 83.2732L90.6776 83.3963L91.3315 84.0173L91.7009 84.3835L91.6951 84.3805ZM90.5164 85.1187L91.006 85.5933L91.8358 86.3783L90.5105 86.3725L90.5164 85.1187ZM98.2131 84.9459L98.2424 84.9723L99.7407 86.4047H99.295L97.5885 84.7789L97.4244 84.6178L97.1869 84.401L97.0373 84.2516L97.008 84.237L96.0433 83.3025L95.9554 83.2088L95.8528 83.1151H96.2838L96.492 83.3055L97.6355 84.401L97.873 84.6178L97.8876 84.6325L98.2131 84.943V84.9459ZM101.01 85.7515H101.025L101.708 86.4135H101.277L100.506 85.6812L100.075 85.2623L100.046 85.2476L99.4094 84.6266L99.1719 84.4098L98.9051 84.152L98.0313 83.3142L97.8231 83.1238H98.2688L98.4623 83.3142L99.2041 84.0173L99.6058 84.4098L99.8433 84.6266L100.052 84.8287L100.081 84.8551L101.016 85.7485L101.01 85.7515ZM103.658 86.3813L103.687 86.4223H103.256L102.588 85.772L101.386 84.6354L101.148 84.4186L100.242 83.5398L100.078 83.3904L100.005 83.323L99.902 83.2293L99.814 83.1355H100.052V82.9627L100.081 82.9774L100.245 83.1385L100.348 83.2322L100.436 83.326L100.538 83.408L101.576 84.4215L101.814 84.6383L102.957 85.7339L103.655 86.3842L103.658 86.3813ZM101.588 82.535L101.855 82.7928L102.224 83.1443L102.432 83.3348L103.558 84.4303L103.676 84.5387L103.793 84.6471L104.549 85.3765L105.661 86.4311H105.215L104.221 85.482L103.673 84.9547L103.658 84.94L103.347 84.6412L103.11 84.4245L101.984 83.3289L101.776 83.1385L101.553 82.9364L101.136 82.5321L100.084 81.5303L100.054 81.5156V81.085L100.087 81.1114L100.354 81.3691L101.585 82.5321L101.588 82.535ZM103.954 83.3377L103.851 83.2439L103.764 83.1502H104.195L104.403 83.3406L105.546 84.4362L105.784 84.653L105.919 84.7877L107.654 86.4369H107.209L105.652 84.9459H105.637L105.341 84.6471L105.103 84.4303L103.96 83.3348L103.954 83.3377ZM105.933 83.3465L105.831 83.2527L105.743 83.159H106.174L106.382 83.3494L107.08 84.0114L107.525 84.445L107.763 84.6617L108.859 85.7163L109.557 86.3783L109.631 86.4457H109.185L108.71 85.9829L107.314 84.6559L107.077 84.4391L106.839 84.2106L105.933 83.3465ZM107.927 83.3553L107.719 83.1648L113.214 83.1854L113.202 86.4574L111.161 86.4486L110.346 85.6636L109.634 84.9869L109.308 84.6881L109.293 84.6617L109.056 84.445L107.93 83.3494L107.927 83.3553ZM100.113 79.2571L100.588 79.717L102.339 81.3809L103.183 82.1777L103.57 82.5438L103.673 82.6376V83.0682L103.121 82.5409L102.884 82.3095L101.89 81.375L100.289 79.8459L100.095 79.6555L100.066 79.6291V79.2102L100.113 79.2512V79.2571ZM94.1346 81.4951L93.985 81.3457L91.7596 79.2219L91.3432 78.8177L90.8682 78.3841V78.3695L90.5721 78.1L90.5427 78.0736V77.6547L90.6043 77.7104L90.9914 78.0766L91.4664 78.5365L92.1935 79.2249L94.1375 81.0791V81.498L94.1346 81.4951ZM100.104 77.7866L100.075 77.7719V77.5024H100.239L100.283 77.5434L101.913 79.0989L102.078 79.26L103.678 80.7891V81.1934L101.644 79.26L101.614 79.2337L100.101 77.7866H100.104ZM94.1404 79.6233L93.7241 79.2307L91.9883 77.5815L91.8241 77.4321L91.4546 77.0659L90.833 76.4566L90.5515 76.1988V75.7799L90.9093 76.1315L91.6218 76.8082L92.1701 77.3208L92.2727 77.4292L94.1404 79.2131V79.6174V79.6233ZM102.945 78.6214L101.834 77.5522L101.79 77.5112L103.696 77.52L103.69 79.3245L103.632 79.2688L102.948 78.6185L102.945 78.6214ZM91.437 74.7635L92.4603 75.7243L92.994 76.2369L94.1521 77.3325V77.7514L93.8091 77.4409L92.8005 76.4683L92.2522 75.9557L91.3168 75.0622L90.6336 74.4119L90.5603 74.3446V73.9139L90.8154 74.1571L91.0823 74.4149L91.437 74.7664V74.7635ZM91.0999 72.9707L90.9972 72.8887H91.4429L91.5455 72.9707L92.1231 73.539L92.7917 74.16L93.0585 74.4178L93.4748 74.8103L93.9645 75.2702L94.158 75.4606V75.8913L93.7417 75.4841L93.2373 75.0095L92.6128 74.4149L92.346 74.1571L91.9589 73.7909L91.0999 72.9648V72.9707ZM94.1639 74.0194L93.0819 72.9765L92.9793 72.8945L94.1697 72.9004L94.1639 74.0194Z" fill="#231F20" stroke="#EF4923" stroke-miterlimit="10"/>
</g>
<defs>
<clipPath id="clip0_324_858">
<rect width="203" height="129" fill="white"/>
</clipPath>
</defs>
</svg>
