<?xml version="1.0" encoding="UTF-8"?>
<svg id="Layer_1" data-name="Layer 1" xmlns="http://www.w3.org/2000/svg" viewBox="0 0 691.84 440.18">
  <defs>
    <style>
      .cls-1 {
        fill: #ef4923;
      }

      .cls-2, .cls-3, .cls-4 {
        fill: #f1f2f2;
      }

      .cls-3 {
        stroke: #fff;
      }

      .cls-3, .cls-4 {
        stroke-miterlimit: 10;
      }

      .cls-4 {
        stroke: #ef4923;
      }
    </style>
  </defs>
  <path class="cls-1" d="M490.91,353.62c-.39,2.14-2.65,5.79-6.78,10.93-4.12,5.14-9.23,10.82-15.32,17.04-6.09,6.22-12.86,12.75-20.33,19.61-7.46,6.86-14.83,13.07-22.1,18.65-7.27,5.57-13.95,10.18-20.03,13.82-6.09,3.65-10.9,5.47-14.44,5.47V0h299.91v99.66h-200.34v27.65h151.43v99.01h-151.43v127.31h-.59Z"/>
  <path class="cls-3" d="M201.96,86.21c.4-2.14,2.66-5.77,6.79-10.9,4.13-5.13,9.25-10.79,15.34-16.98,6.1-6.19,12.88-12.71,20.36-19.54,7.47-6.83,14.85-13.03,22.12-18.58,7.28-5.55,13.96-10.14,20.05-13.77,6.09-3.63,10.91-5.44,14.44-5.44l-.66,438.37-299.91-.45.15-99.49,200.34.3.04-27.6-151.43-.23.15-98.84,151.43.23.19-127.08h.59Z"/>
  <g>
    <path class="cls-2" d="M307.71,382.41v-19.4s63.1,0,63.1,0c.38.08,1.03.52,1.95,1.33.92.81,1.93,1.81,3.04,3,1.11,1.19,2.28,2.52,3.5,3.98,1.22,1.46,2.33,2.91,3.33,4.33.99,1.42,1.82,2.73,2.47,3.93.65,1.19.98,2.14.98,2.83h-78.36Z"/>
    <path class="cls-2" d="M325.9,339.89v17.93h-18.23v-51.71h18.23v17.93h46.47c.63.06,1.78.77,3.47,2.12,1.69,1.35,3.43,2.89,5.23,4.62,1.8,1.73,3.41,3.48,4.82,5.24,1.41,1.76,2.12,3.05,2.12,3.87h-62.11Z"/>
    <path class="cls-2" d="M385.67,234c0,.77-.5,1.54-1.49,2.31-.99.77-2.22,1.47-3.69,2.1-1.46.63-3,1.15-4.61,1.57-1.61.42-3.07.63-4.39.63h-49.61c-1.23,0-2.67-.21-4.32-.63-1.65-.42-3.21-.94-4.68-1.57-1.47-.63-2.69-1.33-3.69-2.1-.99-.77-1.49-1.54-1.49-2.31v-44.15c0-.7.5-1.45,1.49-2.25.99-.8,2.22-1.54,3.69-2.2,1.46-.66,3.02-1.21,4.68-1.63,1.65-.42,3.09-.63,4.32-.63h49.61c1.32,0,2.79.21,4.39.63,1.61.42,3.14.96,4.61,1.63,1.47.66,2.69,1.4,3.69,2.2.99.8,1.49,1.56,1.49,2.25v44.15ZM332.24,200.75c-.57,0-1.13.12-1.7.37-.57.24-.85.54-.85.89v19.82c0,.35.31.63.92.84.61.21,1.16.31,1.63.31h28.91c.57,0,1.13-.1,1.7-.31.57-.21.85-.49.85-.84v-19.82c0-.35-.28-.65-.85-.89-.57-.24-1.13-.37-1.7-.37h-28.91Z"/>
    <path class="cls-4" d="M320.29,164.88l.05.09,11.48,11.44h-1.44s-11.48-11.44-11.48-11.44l-.05-.05-3.63-3.61-.1-.14-7.35-7.31-.05-.05v-1.09c0-.16.02-.27.05-.33v.05s8.3,8.26,8.3,8.26l.6.62,3.08,3.04v.52s.55,0,.55,0ZM313.72,164.91v.05s11.48,11.44,11.48,11.44h-1.44s-11.48-11.44-11.48-11.44l-.05-.05-1.49-1.47-2.14-2.14-.84-.85-.05-.05v-1.47s.05.1.05.1l2.29,2.28,1.69,1.66,1.99,1.95ZM307.69,165.47l.05.1,10.83,10.82h-1.44s-9.39-9.4-9.39-9.4l-.05-.05v-1.47ZM307.67,172.05l.05.05,4.27,4.27h-4.33s.01-4.32.01-4.32ZM326.92,164.9l.05.09,11.48,11.44h-1.49s-11.43-11.44-11.43-11.44l-.05-.09h1.44ZM333.54,164.92l.05.09,11.43,11.44h-1.44s-11.48-11.44-11.48-11.44l-.05-.09h1.49ZM340.17,164.98l7.55,7.55,3.93,3.94h-1.44s-2.48-2.52-2.48-2.52l-8.99-8.92-.05-.09h1.44s.05.05.05.05ZM346.8,165l7.4,7.4,4.07,4.08h-1.49s-4.07-4.09-4.07-4.09l-7.4-7.4v-.05s.35,0,.35,0v-1.09s1.15,1.14,1.15,1.14ZM353.42,165.06l7.25,7.22,4.22,4.22h-1.49s-4.07-4.13-4.07-4.13h-.05s-7.3-7.31-7.3-7.31l-.3-.33-6.01-5.98v-1.42s.85.85.85.85l5.17,5.13.05.05,1.69,1.66v.05ZM364.61,171.06l-6.01-5.98-.05-.09h1.44s.05.1.05.1l5.52,5.46,5.96,5.98h-1.49s-5.42-5.46-5.42-5.46ZM368.41,168.22l-3.23-3.13-.05-.09,18.48.05-.03,11.51-6.92-.02-8.25-8.31ZM350.85,155.92l.89.85,4.77,4.75,1.19,1.19v1.47s-2.29-2.28-2.29-2.28l-3.68-3.66-1.84-1.85-3.08-3.09-1.19-1.19c0-.54-.05-1.06-.15-1.56l2.43,2.42,2.93,2.94ZM319.51,158.96l-4.22-4.18-7.01-7.02.3-1.14,8.94,8.92,2.24,2.23v1.47s-.25-.28-.25-.28ZM332.79,129.02c5.21.01,9.92,1.41,14.11,4.18,4.19,2.77,7.22,6.39,9.06,10.84l27.73-12.43-.03,11.46-25.93,11.63v2.94s-3.49-3.46-3.49-3.46l-2.48-2.52-3.73-3.7-11.53-11.49-7.2-7.17c.3-.06.75-.12,1.35-.19.93-.06,1.64-.09,2.14-.09ZM319.88,151.34c-.07.57-.1,1.03-.1,1.37l-9.79-9.83c.2-.44.37-.76.5-.95l9.39,9.35v.05ZM317.91,144.19h-.05s-3.68-3.7-3.68-3.7l-1.64-1.61c.17-.22.38-.49.65-.8l2.44,2.42,4.42,4.46h.05s1.54,1.52,1.54,1.52c-.13.19-.3.5-.5.95l-3.23-3.23ZM324.03,143.78l-3.28-3.28-4.12-4.08-.94-1c.33-.31.6-.53.8-.66l1.64,1.66,4.12,4.08,2.58,2.56c-.27.16-.53.39-.8.71ZM327.38,140.52l-4.12-4.08-3.38-3.37-.4-.38c.1-.09.27-.2.5-.33.23-.12.38-.2.45-.24l2.53,2.52,1.79,1.8,4.12,4.08.4.43c-.47.09-.83.2-1.1.33l-.8-.76ZM333.61,140.15l-3.73-3.7-5.91-5.89c.3-.16.67-.3,1.1-.42l6.31,6.31,4.12,4.08.3.28c-.36-.1-.96-.18-1.79-.24l-.4-.43Z"/>
    <path class="cls-2" d="M382.99,66.73v44.77c0,.78-.49,1.56-1.47,2.34-.98.78-2.19,1.49-3.64,2.13-1.45.64-2.96,1.17-4.55,1.6-1.59.43-3.03.64-4.34.64h-48.98c-1.21,0-2.64-.21-4.27-.64-1.63-.43-3.17-.96-4.62-1.6-1.45-.64-2.66-1.35-3.64-2.13-.98-.78-1.47-1.56-1.47-2.34v-44.77c0-.71.49-1.47,1.47-2.29.98-.82,2.19-1.56,3.64-2.23s2.99-1.22,4.62-1.65c1.63-.43,3.06-.64,4.27-.64h15.53v17.87h-5.32c-.56,0-1.12.12-1.68.37-.56.25-.84.55-.84.9v20.1c0,.35.3.64.91.85.61.21,1.14.32,1.61.32h28.55c.56,0,1.12-.11,1.68-.32.56-.21.84-.5.84-.85v-20.1c0-.35-.28-.66-.84-.9s-1.12-.37-1.68-.37h-5.32v-17.87h15.53c1.31,0,2.75.21,4.34.64,1.59.43,3.1.97,4.55,1.65,1.45.67,2.66,1.42,3.64,2.23.98.82,1.47,1.58,1.47,2.29Z"/>
    <path class="cls-4" d="M325.75,44.51l2.25,2.33,4.04,4.22h-1.49s-3.5-3.72-3.5-3.72l-2.75-2.83-.8-.79-3.49-3.62-.2-.2-.5-.55-.35-.35-.65-.69-1.5-1.54-4.14-4.27-3.89-4.07-.75-.79-.3-.3v-1.54s.2.25.2.25l1.1,1.14,5.14,5.31,4.09,4.27,1,1.04.55.55v.65s.6,0,.6,0l.7.69,3.84,4.02.8.79ZM322.03,47.55l1.55,1.59,1.85,1.93h-1.49s0-.04,0-.04l-.05-.1-1.3-1.29-2.75-2.83-2.15-2.28-.8-.79-3-3.13-1.2-1.24-.35-.35-1.85-1.88v-.05s-.3-.3-.3-.3l-1.95-1.98-.35-.4-.15-.15v-1.54s.24.25.24.25l.25.3,1.4,1.39v.05s2,2.08,2,2.08l2.15,2.23.35.35.7.74,3.49,3.62.8.79.7.74,2.2,2.23v.05ZM311.71,43.76l.8.79,6.24,6.55h-1.39s-.25-.24-.25-.24l-.15-.15-5.59-5.8-.05-.05-.25-.3-.8-.79-.8-.84-1.2-1.24-.3-.3-.2-.25v-1.49s.05.05.05.05l.45.45,1.2,1.24v.05s1,.99,1,.99l1.25,1.34ZM307.79,46.56l1.65,1.69,2.75,2.88h-4.38s-.02-4.56-.02-4.56ZM333.51,45.68l.1.1,5.04,5.26h-1.49s-5.74-5.95-5.74-5.95l-.55-.6-.8-.79-.5-.55-.1-.05-.35-.4-2.9-3.03-.3-.35-.35-.35h1.44s.7.69.7.69l2.9,3.03.95.99.8.79.05.05,1.1,1.14ZM342.93,48.58l.95.99,1.35,1.44h-1.44s-.75-.74-.75-.74l-1.85-1.93-1.45-1.54-.1-.05-2.15-2.28-.8-.79-.9-.94-1.2-1.29-1.75-1.79-.7-.69h1.49s.65.69.65.69l1.2,1.19,1.3,1.39,1.35,1.44.8.79.7.74.1.1,3.15,3.27h.05ZM351.74,50.84l.1.15h-1.44s-2.25-2.38-2.25-2.38l-1.65-1.69-2.4-2.48-.8-.79-3.05-3.22-.55-.55-.25-.25-.35-.35-.3-.35h.8s0-.65,0-.65l.1.05.55.6.35.35.3.35.35.3,3.5,3.72.8.79,1.6,1.69,2.25,2.33,2.35,2.38ZM352.17,44.42l2.55,2.68,3.74,3.87h-1.49s-3.35-3.47-3.35-3.47l-1.85-1.93-.05-.05-1.05-1.09-.8-.79-.65-.74-3.15-3.27-.7-.69-.75-.74-1.4-1.49-3.55-3.67-.1-.05v-1.59s.09.1.09.1l.9.94,4.14,4.27.9.94,1.25,1.29.7.69,2.15,2.23,1.65,1.79.4.4.4.4ZM358.79,44.4l.45.5,5.84,6.05h-1.49s-5.24-5.45-5.24-5.45h-.05s-1-1.09-1-1.09l-.8-.79-3.84-4.02-.35-.35-.3-.35h1.44s.7.69.7.69l3.84,4.02.8.79ZM371.45,50.68l.25.25h-1.49s-1.6-1.68-1.6-1.68l-4.69-4.86-.8-.79-.8-.84-3.05-3.18-.3-.35-.35-.35h1.44s.7.69.7.69l2.35,2.43,1.5,1.59.8.79,3.7,3.87,2.35,2.43ZM365.24,38.85l6.32-.02-.12-37.72,12.04-.04.16,49.81-6.82.02-2.75-2.88-2.4-2.48-.1-.1-1-.99-.05-.1-.8-.79-3.8-4.02-.7-.69ZM339.56,24.46l.15.15,1.6,1.69,5.89,6.1,2.85,2.93,1.3,1.34.35.35v1.59s-.64-.69-.64-.69l-1.2-1.24-.8-.84-3.34-3.42-5.39-5.61-.65-.69-.1-.1v-1.54ZM319.79,33.03l-.5-.55-7.49-7.79-1.4-1.49-1.6-1.59v-.05s-1-.99-1-.99l-.1-.1v-1.54s.19.2.19.2l1.3,1.34,1.6,1.69,2.45,2.53,6.54,6.8v1.54ZM339.54,18.14h.55s.15.15.15.15l5.49,5.7.55.6,5.39,5.61v1.49s-6.84-7.09-6.84-7.09l-.1-.1-4.09-4.27-1-1.04-.1-.05v-1ZM319.77,26.12l-1.4-1.44-5.84-6.05-.55-.55-1.25-1.34-2.1-2.23-.95-.94v-1.54s1.19,1.29,1.19,1.29l2.4,2.48,1.85,1.88.35.4,6.29,6.55v1.49ZM349.16,22.19l-3.74-3.92-.15-.15,6.37-.02.02,6.67-.2-.2-2.3-2.38ZM315.2,14.49l-1.85-1.88-3.15-3.27-2.3-2.38-.25-.25v-1.59s.84.89.84.89l.9.94,1.2,1.29,3.44,3.52,1.8,1.89,3.89,4.02v1.54s-1.14-1.14-1.14-1.14l-3.4-3.57ZM309.43,1.62l-.35-.3h1.49s.35.29.35.29l1.95,2.08,1.35,1.34.9.94.9.94,1.4,1.44,1.65,1.69.65.69v1.59s-1.39-1.49-1.39-1.49l-1.7-1.74-2.1-2.18-.9-.94-.95-.94-.35-.4-2.9-3.03ZM319.3,5.02l-3.25-3.42-.35-.3h3.98s.01,4.12.01,4.12l-.4-.4Z"/>
  </g>
  <path class="cls-4" d="M325.7,433.04l2.25,2.29,4.04,4.14h-1.5s-3.49-3.66-3.49-3.66l-2.74-2.78-.8-.78-3.49-3.56-.2-.2-.5-.54-.35-.34-.65-.68-1.5-1.51-4.14-4.19-3.89-3.99-.75-.78-.3-.29v-1.5s.21.24.21.24l1.1,1.12,5.14,5.21,4.09,4.19,1,1.02.55.54v.63s.6,0,.6,0l.7.68,3.84,3.95.8.78ZM321.93,435.98l1.55,1.56,1.85,1.9h-1.5s0-.05,0-.05l-.05-.1-1.3-1.27-2.74-2.78-2.14-2.24-.8-.78-2.99-3.07-1.2-1.22-.35-.34-1.85-1.85v-.05s-.3-.29-.3-.29l-1.95-1.95-.35-.39-.15-.15v-1.5s.26.24.26.24l.25.29,1.4,1.36v.05s2,2.05,2,2.05l2.14,2.19.35.34.7.73,3.49,3.56.8.78.7.73,2.2,2.19v.05ZM311.58,432.2l.8.78,6.24,6.43h-1.4s-7.08-7.22-7.08-7.22l-.8-.83-1.2-1.22-.3-.29-.2-.24v-1.46s.06.05.06.05l.45.44,2.2,2.24,1.25,1.32ZM307.61,434.86l1.65,1.71,2.79,2.83-4.46-.02.02-4.51ZM333.51,434.23l.1.1,5.04,5.17h-1.5s-5.74-5.85-5.74-5.85l-.55-.58-.8-.78-.5-.54-.1-.05-3.24-3.36-.3-.34-.35-.34h1.45s.7.69.7.69l3.84,3.95.8.78.05.05,1.1,1.12ZM342.92,437.13h.05s2.29,2.39,2.29,2.39h-1.45s-2.59-2.64-2.59-2.64l-1.45-1.51-.1-.05-2.14-2.24-.8-.78-.9-.93-2.94-3.02-.7-.68h1.5s.65.69.65.69l2.49,2.53,1.35,1.41.8.78.7.73.1.1,3.14,3.22ZM351.82,439.4l.1.15h-1.45s-2.25-2.34-2.25-2.34l-4.04-4.09-.8-.78-3.04-3.17-.55-.54-.25-.24-.35-.34-.3-.34h.8s0-.63,0-.63l.1.05.55.58.35.34.3.34.35.29,3.49,3.65.8.78,3.84,3.95,2.34,2.34ZM344.87,425.54l.9.93,1.25,1.27.7.68,3.79,3.95.4.39.4.39,2.54,2.63,3.74,3.8h-1.5s-3.34-3.42-3.34-3.42l-1.85-1.9-.05-.05-1.05-1.07-.8-.78-3.79-3.95-.7-.68-.75-.73-1.4-1.46-3.54-3.61-.1-.05v-1.55s.11.1.11.1l.9.93,4.14,4.19ZM352.82,428.44l-.35-.34-.3-.34h1.45s.7.69.7.69l3.84,3.95.8.78.45.49,5.84,5.94h-1.5s-5.24-5.37-5.24-5.37h-.05s-1-1.07-1-1.07l-.8-.78-3.84-3.95ZM359.48,428.46l-.35-.34-.3-.34h1.45s.7.69.7.69l2.34,2.39,1.5,1.56.8.78,3.69,3.8,2.34,2.39.25.24h-1.5s-1.6-1.66-1.6-1.66l-4.69-4.78-.8-.78-.8-.83-3.04-3.12ZM366.19,428.49l-.7-.68,18.48.07-.05,11.79-6.86-.03-2.74-2.83-2.39-2.44-1.1-1.07-.05-.1-.8-.78-3.79-3.95ZM339.9,413.73l1.6,1.66,5.89,5.99,2.84,2.88,1.3,1.32.35.34v1.55s-1.85-1.9-1.85-1.9l-.8-.83-3.34-3.36-5.39-5.51-.65-.68-.1-.1v-1.51s.16.15.16.15ZM319.79,421.8l-.5-.54-7.48-7.65-1.4-1.46-1.6-1.56v-.05s-1-.98-1-.98l-.1-.1v-1.51s.21.2.21.2l1.3,1.32,1.6,1.66,2.44,2.48,6.53,6.68v1.5ZM339.88,408.44l-.1-.05v-.97s.55,0,.55,0l.15.15,5.49,5.6.55.58,5.39,5.51v1.46s-6.84-6.97-6.84-6.97l-.1-.1-5.09-5.21ZM319.81,415.06l-1.4-1.41-5.84-5.94-.55-.54-1.25-1.32-2.1-2.19-.95-.93v-1.5s1.2,1.27,1.2,1.27l2.39,2.44,1.85,1.85.35.39,6.29,6.43v1.46ZM349.43,411.44l-3.74-3.85-.15-.15,6.41.03-.03,6.5-.2-.2-2.3-2.34ZM310.72,397.55l3.44,3.46,1.8,1.85,3.89,3.95v1.51s-1.15-1.12-1.15-1.12l-3.39-3.51-1.85-1.85-3.14-3.22-2.3-2.34-.25-.24v-1.55s.85.88.85.88l.9.93,1.2,1.27ZM309.59,391.09l-.35-.29h1.5s.35.3.35.3l1.95,2.05,2.25,2.24.9.93,1.4,1.41,1.65,1.66.65.68v1.55s-1.4-1.46-1.4-1.46l-1.7-1.71-2.1-2.14-.9-.93-1.3-1.32-2.89-2.97ZM319.89,394.86l-3.64-3.75-.35-.29,4.01.02-.02,4.03Z"/>
  <path class="cls-4" d="M326.55,288.85l2.28,2.17,4.1,3.92h-1.52s-3.54-3.47-3.54-3.47l-2.78-2.63-.81-.74-3.54-3.37-.2-.19-.51-.51-.35-.32-.66-.65-1.52-1.43-4.2-3.97-3.95-3.79-.76-.74-.3-.28v-1.43s.21.23.21.23l1.11,1.06,5.21,4.94,4.15,3.97,1.01.97.56.51v.6s.61,0,.61,0l.71.65,3.89,3.74.81.74ZM322.73,291.64l1.57,1.48,1.87,1.8h-1.52s0-.05,0-.05l-.05-.09-1.32-1.2-2.78-2.63-2.17-2.12-.81-.74-3.04-2.91-1.21-1.15-.35-.32-1.87-1.75v-.05s-.3-.28-.3-.28l-1.97-1.85-.35-.37-.15-.14v-1.43s.26.23.26.23l.25.28,1.42,1.29v.05s2.02,1.94,2.02,1.94l2.17,2.08.35.32.71.69,3.54,3.37.81.74.71.69,2.23,2.08v.05ZM312.23,288.05l.81.74,6.32,6.09h-1.42s-7.18-6.84-7.18-6.84l-.81-.78-1.21-1.15-.3-.28-.2-.23v-1.38s.06.05.06.05l.46.42,2.23,2.12,1.26,1.25ZM308.21,290.57l1.67,1.62,2.83,2.68-4.52-.02.02-4.28ZM334.46,289.98l.1.09,5.11,4.89h-1.52s-5.82-5.55-5.82-5.55l-.56-.55-.81-.74-.51-.51-.1-.05-3.29-3.19-.3-.32-.35-.32h1.47s.71.65.71.65l3.9,3.74.81.74.05.05,1.11,1.06ZM344,292.73h.05s2.33,2.26,2.33,2.26h-1.47s-2.63-2.5-2.63-2.5l-1.47-1.43-.1-.05-2.17-2.12-.81-.74-.91-.88-2.98-2.86-.71-.65h1.52s.66.65.66.65l2.53,2.4,1.37,1.34.81.74.71.69.1.09,3.19,3.05ZM353.03,294.88l.1.14h-1.47s-2.28-2.22-2.28-2.22l-4.1-3.88-.81-.74-3.09-3-.56-.51-.25-.23-.35-.32-.3-.32h.81s0-.59,0-.59l.1.05.56.55.35.32.3.32.35.28,3.54,3.46.81.74,3.9,3.74,2.38,2.22ZM345.97,281.75l.91.88,1.26,1.2.71.65,3.84,3.74.4.37.4.37,2.58,2.49,3.79,3.6h-1.52s-3.39-3.24-3.39-3.24l-1.87-1.8-.05-.05-1.06-1.02-.81-.74-3.84-3.74-.71-.65-.76-.69-1.42-1.38-3.59-3.42-.1-.05v-1.47s.11.09.11.09l.91.88,4.2,3.97ZM354.03,284.49l-.35-.32-.3-.32h1.47s.71.65.71.65l3.9,3.74.81.74.46.46,5.92,5.63h-1.52s-5.31-5.09-5.31-5.09h-.05s-1.01-1.02-1.01-1.02l-.81-.74-3.9-3.74ZM360.79,284.52l-.35-.32-.3-.32h1.47s.71.65.71.65l2.38,2.26,1.52,1.48.81.74,3.74,3.6,2.38,2.26.25.23h-1.52s-1.62-1.58-1.62-1.58l-4.76-4.53-.81-.74-.81-.78-3.09-2.95ZM367.59,284.55l-.71-.65,18.74.07-.04,11.17-6.96-.03-2.78-2.68-2.43-2.31-1.11-1.02-.05-.09-.81-.74-3.84-3.74ZM340.94,270.56l1.62,1.57,5.97,5.68,2.88,2.72,1.32,1.25.35.32v1.47s-1.88-1.8-1.88-1.8l-.81-.79-3.39-3.19-5.46-5.22-.66-.65-.1-.09v-1.43s.16.14.16.14ZM320.55,278.2l-.51-.51-7.59-7.25-1.42-1.38-1.62-1.48v-.05s-1.01-.92-1.01-.92l-.1-.09v-1.43s.21.19.21.19l1.32,1.25,1.62,1.57,2.48,2.35,6.63,6.33v1.43ZM340.91,265.54l-.1-.05v-.92s.56,0,.56,0l.15.14,5.56,5.31.56.55,5.46,5.22v1.38s-6.94-6.6-6.94-6.6l-.1-.09-5.16-4.94ZM320.57,271.81l-1.42-1.34-5.92-5.63-.56-.51-1.26-1.25-2.12-2.08-.96-.88v-1.43s1.22,1.2,1.22,1.2l2.43,2.31,1.87,1.75.35.37,6.37,6.09v1.38ZM350.6,268.39l-3.79-3.65-.15-.14,6.5.03-.02,6.16-.2-.19-2.33-2.22ZM311.34,255.22l3.49,3.28,1.82,1.75,3.95,3.74v1.43s-1.17-1.06-1.17-1.06l-3.44-3.32-1.87-1.75-3.19-3.05-2.33-2.22-.25-.23v-1.47s.87.83.87.83l.91.88,1.21,1.2ZM310.2,249.1l-.35-.28h1.52s.35.28.35.28l1.97,1.94,2.28,2.12.91.88,1.42,1.34,1.67,1.57.66.65v1.47s-1.42-1.39-1.42-1.39l-1.72-1.62-2.13-2.03-.91-.88-1.32-1.25-2.93-2.82ZM320.65,252.68l-3.69-3.56-.35-.28,4.06.02-.02,3.82Z"/>
</svg>